HIERARCHY
ROOT Hips
{
	OFFSET 0.000000 0.000000 0.000000
	CHANNELS 6 Xposition Yposition Zposition Zrotation Yrotation Xrotation 
	JOINT LHipJoint
	{
		OFFSET 0.000000 0.000000 0.000000
		CHANNELS 3 Zrotation Yrotation Xrotation
		JOINT LeftUpLeg
		{
			OFFSET 1.363060 -1.794630 0.839290
			CHANNELS 3 Zrotation Yrotation Xrotation
			JOINT LeftLeg
			{
				OFFSET 2.448110 -6.726130 0.000000
				CHANNELS 3 Zrotation Yrotation Xrotation
				JOINT LeftFoot
				{
					OFFSET 2.562200 -7.039590 0.000000
					CHANNELS 3 Zrotation Yrotation Xrotation
					JOINT LeftToeBase
					{
						OFFSET 0.157640 -0.433110 2.322550
						CHANNELS 3 Zrotation Yrotation Xrotation
						End Site
						{
							OFFSET 0.000000 0.000000 0.000000
						}
					}
				}
			}
		}
	}
	JOINT RHipJoint
	{
		OFFSET 0.000000 0.000000 0.000000
		CHANNELS 3 Zrotation Yrotation Xrotation
		JOINT RightUpLeg
		{
			OFFSET -1.305520 -1.794630 0.839290
			CHANNELS 3 Zrotation Yrotation Xrotation
			JOINT RightLeg
			{
				OFFSET -2.542530 -6.985550 0.000000
				CHANNELS 3 Zrotation Yrotation Xrotation
				JOINT RightFoot
				{
					OFFSET -2.568260 -7.056230 0.000000
					CHANNELS 3 Zrotation Yrotation Xrotation
					JOINT RightToeBase
					{
						OFFSET -0.164730 -0.452590 2.363150
						CHANNELS 3 Zrotation Yrotation Xrotation
						End Site
						{
							OFFSET 0.000000 0.000000 0.000000
						}
					}
				}
			}
		}
	}
	JOINT LowerBack
	{
		OFFSET 0.000000 0.000000 0.000000
		CHANNELS 3 Zrotation Yrotation Xrotation
		JOINT Spine
		{
			OFFSET 0.028270 2.035590 -0.193380
			CHANNELS 3 Zrotation Yrotation Xrotation
			JOINT Spine1
			{
				OFFSET 0.056720 2.048850 -0.042750
				CHANNELS 3 Zrotation Yrotation Xrotation
				JOINT Neck
				{
					OFFSET 0.000000 0.000000 0.000000
					CHANNELS 3 Zrotation Yrotation Xrotation
					JOINT Neck1
					{
						OFFSET -0.054170 1.746240 0.172020
						CHANNELS 3 Zrotation Yrotation Xrotation
						JOINT Head
						{
							OFFSET 0.104070 1.761360 -0.123970
							CHANNELS 3 Zrotation Yrotation Xrotation
							End Site
							{
								OFFSET 0.000000 0.000000 0.000000
							}
						}
					}
				}
				JOINT LeftShoulder
				{
					OFFSET 0.000000 0.000000 0.000000
					CHANNELS 3 Zrotation Yrotation Xrotation
					JOINT LeftArm
					{
						OFFSET 3.362410 1.200890 -0.311210
						CHANNELS 3 Zrotation Yrotation Xrotation
						JOINT LeftForeArm
						{
							OFFSET 4.983000 -0.000000 -0.000000
							CHANNELS 3 Zrotation Yrotation Xrotation
							JOINT LeftHand
							{
								OFFSET 3.483560 -0.000000 -0.000000
								CHANNELS 3 Zrotation Yrotation Xrotation
								JOINT LeftFingerBase
								{
									OFFSET 0.000000 0.000000 0.000000
									CHANNELS 3 Zrotation Yrotation Xrotation
									JOINT LeftHandIndex1
									{
										OFFSET 0.715260 -0.000000 -0.000000
										CHANNELS 3 Zrotation Yrotation Xrotation
										End Site
										{
											OFFSET 0.000000 0.000000 0.000000
										}
									}
								}
								JOINT LThumb
								{
									OFFSET 0.000000 0.000000 0.000000
									CHANNELS 3 Zrotation Yrotation Xrotation
									End Site
									{
										OFFSET 0.000000 0.000000 0.000000
									}
								}
							}
						}
					}
				}
				JOINT RightShoulder
				{
					OFFSET 0.000000 0.000000 0.000000
					CHANNELS 3 Zrotation Yrotation Xrotation
					JOINT RightArm
					{
						OFFSET -3.136600 1.374050 -0.404650
						CHANNELS 3 Zrotation Yrotation Xrotation
						JOINT RightForeArm
						{
							OFFSET -5.241900 -0.000000 -0.000000
							CHANNELS 3 Zrotation Yrotation Xrotation
							JOINT RightHand
							{
								OFFSET -3.444170 -0.000000 -0.000000
								CHANNELS 3 Zrotation Yrotation Xrotation
								JOINT RightFingerBase
								{
									OFFSET 0.000000 0.000000 0.000000
									CHANNELS 3 Zrotation Yrotation Xrotation
									JOINT RightHandIndex1
									{
										OFFSET -0.622530 -0.000000 -0.000000
										CHANNELS 3 Zrotation Yrotation Xrotation
										End Site
										{
											OFFSET 0.000000 0.000000 0.000000
										}
									}
								}
								JOINT RThumb
								{
									OFFSET 0.000000 0.000000 0.000000
									CHANNELS 3 Zrotation Yrotation Xrotation
									End Site
									{
										OFFSET 0.000000 0.000000 0.000000
									}
								}
							}
						}
					}
				}
			}
		}
	}
}
MOTION
Frames: 11
Frame Time: 0.008333
7.872865 17.969115 -32.418908 -5.723589 -9.955757 1.913678 -4.529357 -3.346238 -0.867229 1.806305 -2.673907 -9.023496 -1.417499 1.837380 2.694071 -3.311063 15.797216 7.898279 3.942400 12.083300 36.027300 0.921483 2.823251 -3.222726 27.590249 -3.020709 8.510642 1.312602 -3.535061 5.843452 1.024216 -13.938676 -23.072801 -9.809800 -17.301500 58.850700 7.699811 1.817958 -0.436746 1.429111 1.709391 -4.537110 -4.569642 1.172709 3.206601 -3.093032 -2.418669 -5.038596 5.759446 -3.708128 10.480628 1.729400 -1.633800 1.598400 -0.709063 -8.681420 2.280402 -83.208769 -0.463772 29.437234 9.675676 -14.006955 -1.333384 0.444057 0.298197 -4.534173 9.757823 -10.821969 -1.804800 -7.125000 0.000000 0.000000 -12.498300 18.872900 7.974900 0.715446 9.028698 2.520667 85.629677 -7.360616 19.585483 -16.020673 20.398907 -4.351352 1.720671 2.077068 -0.962739 -5.520481 -35.577044 4.423400 7.125000 0.000000 0.000000 34.344500 -64.506300 -17.168500 
7.869554 17.966506 -32.419811 -5.735185 -10.117103 1.964208 -4.525927 -3.340989 -0.864692 1.850551 -2.695635 -8.999445 -1.419593 1.821083 2.651896 -3.351576 15.893141 7.788291 3.840700 11.945300 35.538700 0.917645 2.819612 -3.219873 27.574159 -3.042288 8.425073 1.306214 -3.558782 5.903718 1.014600 -13.842144 -22.960133 -8.509300 -16.481300 54.377000 7.681721 1.889609 -0.451191 1.422861 1.802199 -4.558230 -4.543296 1.219224 3.162240 -3.201412 -2.350168 -4.851149 5.975702 -3.649086 10.256286 1.825500 -1.609800 1.498400 -0.715220 -8.698169 2.281762 -83.196140 -0.361111 29.480555 9.513402 -13.802227 -1.293348 0.449197 0.287363 -4.527543 9.335800 -10.831535 -1.720300 -7.125000 0.000000 0.000000 -12.794600 18.894100 8.167500 0.713828 9.013106 2.515325 85.643592 -7.364947 19.444938 -15.991158 20.358808 -4.334705 1.718750 2.071970 -0.806893 -5.380847 -35.488209 4.324700 7.125000 0.000000 0.000000 34.384800 -64.397000 -17.104500 
7.866944 17.964699 -32.417503 -5.768797 -10.342103 2.013887 -4.517742 -3.329411 -0.851243 1.924840 -2.737353 -8.904085 -1.423795 1.780087 2.555221 -3.385446 15.887704 7.451517 3.924100 12.058700 35.939800 0.912355 2.813539 -3.219236 27.618662 -2.920132 8.404325 1.301176 -3.589033 5.980989 0.995126 -13.712024 -22.894689 -7.033700 -15.360200 49.001500 7.718545 1.988870 -0.489108 1.409628 1.926861 -4.576964 -4.559473 1.279808 3.138172 -3.159109 -2.351802 -4.779832 5.984985 -3.651249 10.148670 1.821800 -1.612900 1.449400 -0.717130 -8.696157 2.280981 -83.191970 -0.188045 29.462968 9.460063 -13.729120 -1.277093 0.438455 0.286492 -4.437064 9.376353 -10.576228 -1.691200 -7.125000 0.000000 0.000000 -12.773000 19.143500 8.080100 0.713300 9.009366 2.511994 85.671991 -7.411337 19.341168 -15.971378 20.330919 -4.318591 1.720903 2.058867 -0.701750 -5.392719 -35.326420 4.314300 7.125000 0.000000 0.000000 34.155200 -64.261700 -16.870800 
7.864536 17.962893 -32.415195 -5.707072 -10.624205 2.066102 -4.517415 -3.324711 -0.839210 1.902154 -2.693937 -8.857248 -1.429455 1.760766 2.503296 -3.424579 15.945099 7.213492 3.954400 12.099400 36.084600 0.910860 2.813996 -3.219431 27.517681 -2.888182 8.340149 1.290780 -3.616678 6.053321 0.983564 -13.565653 -22.686801 -4.986400 -13.368500 40.764000 7.663809 2.095466 -0.561413 1.374719 2.064159 -4.598308 -4.570993 1.343645 3.123460 -3.088055 -2.415675 -4.628082 5.931766 -3.729318 10.058808 1.793100 -1.655300 1.388300 -0.721836 -8.692606 2.281341 -83.176337 -0.112034 29.275453 9.352160 -13.587446 -1.254679 0.440502 0.292631 -4.214854 9.464334 -10.670886 -1.723800 -7.125000 0.000000 0.000000 -12.707000 19.038400 8.066800 0.710362 9.008274 2.511483 85.694452 -7.478267 19.330181 -15.956716 20.311716 -4.306401 1.721249 2.050317 -0.705036 -5.435986 -35.200111 4.327700 7.125000 0.000000 0.000000 33.938900 -64.164200 -16.675400 
7.862529 17.958578 -32.414693 -5.683063 -10.808261 2.182537 -4.516877 -3.327017 -0.841995 1.924776 -2.685669 -8.911020 -1.432502 1.749163 2.481528 -3.455108 15.977324 7.034261 3.976300 12.128800 36.189200 0.911816 2.814283 -3.211980 27.471825 -2.816983 8.201002 1.283509 -3.642559 6.121161 0.968452 -13.435470 -22.565982 -3.065000 -10.799600 31.607000 7.632123 2.170208 -0.679232 1.358129 2.152787 -4.638160 -4.564459 1.383698 3.092651 -3.063538 -2.435895 -4.493239 5.922808 -3.756003 9.984278 1.787600 -1.671700 1.337200 -0.725388 -8.691625 2.278535 -83.186594 -0.011841 29.125768 9.254090 -13.460375 -1.231523 0.440640 0.290186 -4.088796 9.352536 -10.640163 -1.697200 -7.125000 0.000000 0.000000 -12.786200 19.075100 8.108900 0.708506 9.004416 2.509971 85.700070 -7.553557 19.313824 -15.942741 20.294611 -4.297048 1.721471 2.045107 -0.682063 -5.444815 -35.124548 4.324900 7.125000 0.000000 0.000000 33.830000 -64.101700 -16.567100 
7.861024 17.952657 -32.414593 -5.648859 -10.938977 2.344158 -4.519403 -3.336765 -0.855044 1.941573 -2.681285 -9.045871 -1.435096 1.748358 2.491333 -3.479627 15.998607 6.906787 4.000500 12.161100 36.304200 0.916248 2.816805 -3.199676 27.412807 -2.739565 8.005122 1.277274 -3.664122 6.178810 0.956494 -13.328599 -22.463377 -1.550100 -7.858400 22.284800 7.587018 2.223657 -0.848907 1.345952 2.208648 -4.692207 -4.547813 1.406530 3.057583 -3.046062 -2.455855 -4.359709 5.894012 -3.780568 9.947922 1.776600 -1.686800 1.297800 -0.728289 -8.688496 2.273454 -83.215262 0.109783 28.954395 9.177312 -13.362366 -1.213199 0.441053 0.286269 -4.000371 9.214892 -10.606603 -1.665000 -7.125000 0.000000 0.000000 -12.883900 19.117600 8.161600 0.706429 9.000164 2.509230 85.692216 -7.653138 19.338674 -15.933493 20.286486 -4.293938 1.722849 2.044415 -0.690430 -5.479023 -35.124777 4.346600 7.125000 0.000000 0.000000 33.791200 -64.110200 -16.552500 
7.859920 17.945532 -32.414693 -5.607215 -11.001977 2.537220 -4.524820 -3.353063 -0.877637 1.951256 -2.688630 -9.247104 -1.437101 1.757808 2.530274 -3.497876 16.014385 6.844003 4.014800 12.180000 36.371800 0.923378 2.821138 -3.183861 27.342503 -2.677247 7.767531 1.272767 -3.678228 6.217388 0.952563 -13.269925 -22.375273 -0.673400 -5.247300 14.615400 7.530451 2.250542 -1.059485 1.340255 2.225827 -4.755066 -4.518947 1.409915 3.025364 -3.049939 -2.468428 -4.239572 5.862267 -3.795384 9.941254 1.768200 -1.696600 1.270400 -0.730244 -8.684001 2.266583 -83.262930 0.263919 28.785677 9.129162 -13.303910 -1.201759 0.442306 0.281404 -3.969233 9.063384 -10.593693 -1.632900 -7.125000 0.000000 0.000000 -12.990900 19.141700 8.225900 0.704410 8.994124 2.509083 85.668688 -7.764255 19.396758 -15.929107 20.287487 -4.297587 1.725396 2.048938 -0.719755 -5.528290 -35.212123 4.387700 7.125000 0.000000 0.000000 33.849600 -64.197100 -16.652300 
7.859217 17.938407 -32.414492 -5.563867 -11.007661 2.724167 -4.532014 -3.371499 -0.903547 1.953679 -2.714606 -9.459605 -1.439162 1.771537 2.579693 -3.509736 16.022426 6.822446 4.021400 12.188800 36.403100 0.931363 2.826077 -3.167905 27.270877 -2.637941 7.539320 1.270091 -3.683070 6.231969 0.954535 -13.251690 -22.308061 -0.299100 -3.516700 9.720900 7.471055 2.251175 -1.270607 1.342071 2.208442 -4.815490 -4.480031 1.397097 3.000454 -3.080287 -2.471363 -4.163429 5.832810 -3.798103 9.967378 1.764800 -1.699600 1.262800 -0.730743 -8.678397 2.258731 -83.326665 0.451703 28.633100 9.118685 -13.296409 -1.199516 0.444122 0.277378 -4.001493 8.948367 -10.615233 -1.612900 -7.125000 0.000000 0.000000 -13.071000 19.129800 8.282900 0.703015 8.986628 2.509424 85.628073 -7.868976 19.476598 -15.928203 20.294386 -4.305780 1.728780 2.056785 -0.748727 -5.579645 -35.357106 4.436700 7.125000 0.000000 0.000000 33.982400 -64.333600 -16.832100 
7.858314 17.932587 -32.413689 -5.525659 -10.984502 2.869955 -4.539040 -3.387164 -0.925810 1.951520 -2.749315 -9.631294 -1.440925 1.784205 2.623176 -3.516295 16.024619 6.821272 4.022400 12.190100 36.408000 0.937988 2.830381 -3.155406 27.211562 -2.619321 7.370524 1.268869 -3.679536 6.224519 0.957797 -13.250965 -22.266567 -0.174300 -2.689700 7.416000 7.414698 2.234630 -1.445148 1.351093 2.171994 -4.861267 -4.431813 1.376538 2.990540 -3.131725 -2.467382 -4.141041 5.805729 -3.790944 10.009712 1.765300 -1.697000 1.271300 -0.729560 -8.672004 2.251199 -83.398430 0.657686 28.523703 9.147397 -13.341065 -1.206811 0.445407 0.275345 -4.091691 8.906894 -10.656611 -1.610200 -7.125000 0.000000 0.000000 -13.098700 19.093700 8.312200 0.702945 8.978529 2.510353 85.571888 -7.948252 19.557519 -15.928441 20.302823 -4.315061 1.732246 2.065296 -0.758392 -5.617727 -35.514115 4.478800 7.125000 0.000000 0.000000 34.148900 -64.477200 -17.036800 
7.857210 17.928573 -32.412887 -5.492410 -10.955429 2.959594 -4.545069 -3.397937 -0.940767 1.942715 -2.781298 -9.740691 -1.442581 1.793845 2.653708 -3.518505 16.023355 6.829011 4.026400 12.195400 36.426800 0.942438 2.833632 -3.147786 27.164927 -2.622965 7.275259 1.268243 -3.671080 6.204053 0.960039 -13.251773 -22.241161 -0.169000 -2.648600 7.301800 7.363501 2.211074 -1.565260 1.363120 2.131492 -4.888936 -4.381381 1.355684 2.993172 -3.196532 -2.462784 -4.159775 5.783362 -3.783268 10.067723 1.769300 -1.693400 1.293700 -0.727509 -8.665814 2.245157 -83.465024 0.861670 28.472051 9.202088 -13.419458 -1.220252 0.445690 0.275429 -4.228134 8.935957 -10.704811 -1.622600 -7.125000 0.000000 0.000000 -13.076200 19.046100 8.311500 0.703877 8.970739 2.511435 85.511291 -7.997634 19.623594 -15.926169 20.306247 -4.321138 1.735046 2.071610 -0.740958 -5.633179 -35.632879 4.502200 7.125000 0.000000 0.000000 34.292200 -64.582600 -17.199400 
7.855504 17.926265 -32.412285 -5.464441 -10.928190 3.000887 -4.549888 -3.404221 -0.948580 1.929186 -2.801621 -9.798514 -1.443642 1.800571 2.673329 -3.515890 16.014669 6.843054 4.040300 12.213900 36.492900 0.944827 2.835898 -3.144148 27.133049 -2.640709 7.240524 1.267946 -3.659620 6.175339 0.960483 -13.247617 -22.226650 -0.169200 -2.649900 7.305600 7.316257 2.187554 -1.632310 1.376638 2.096379 -4.905136 -4.328780 1.338578 2.992795 -3.271600 -2.457546 -4.178481 5.768816 -3.775799 10.121190 1.777900 -1.690000 1.315500 -0.725378 -8.660998 2.240548 -83.524283 1.053098 28.488184 9.269991 -13.514072 -1.236773 0.444700 0.276820 -4.405954 9.007921 -10.741584 -1.642100 -7.125000 0.000000 0.000000 -13.024000 19.006600 8.288200 0.704988 8.963473 2.512411 85.453822 -8.037691 19.666917 -15.922900 20.305459 -4.322557 1.735934 2.074334 -0.703271 -5.615934 -35.680860 4.496500 7.125000 0.000000 0.000000 34.378000 -64.619500 -17.276600 
